<svg width="180" height="44" viewBox="0 0 180 44" fill="none" xmlns="http://www.w3.org/2000/svg">
<path d="M54.9106 29.7932H67.5657V25.9814H59.4085V11.6237H54.9106V29.7932Z" fill="#340E0E"/>
<path d="M75.0634 27.252C73.2592 27.252 72.3189 25.6765 72.3189 23.3132C72.3189 20.9499 73.2592 19.3489 75.0634 19.3489C76.8676 19.3489 77.8333 20.9499 77.8333 23.3132C77.8333 25.6765 76.8676 27.252 75.0634 27.252ZM75.0888 30.1998C79.2817 30.1998 82.0262 27.2266 82.0262 23.3132C82.0262 19.3998 79.2817 16.4266 75.0888 16.4266C70.9213 16.4266 68.126 19.3998 68.126 23.3132C68.126 27.2266 70.9213 30.1998 75.0888 30.1998Z" fill="#340E0E"/>
<path d="M89.2839 34.2911C91.2152 34.2911 92.9178 33.8591 94.0613 32.8426C95.1032 31.9024 95.7893 30.4793 95.7893 28.5226V16.7824H91.8251V18.18H91.7743C91.0119 17.0873 89.843 16.4012 88.115 16.4012C84.8877 16.4012 82.6515 19.0948 82.6515 22.9066C82.6515 26.8962 85.3705 29.0817 88.2929 29.0817C89.8684 29.0817 90.8595 28.4464 91.6218 27.5824H91.7235V28.8784C91.7235 30.4539 90.9865 31.3687 89.2331 31.3687C87.8609 31.3687 87.1748 30.7842 86.946 30.0981H82.931C83.3376 32.8172 85.7009 34.2911 89.2839 34.2911ZM89.2585 26.0068C87.7084 26.0068 86.6919 24.7362 86.6919 22.7795C86.6919 20.7974 87.7084 19.5268 89.2585 19.5268C90.9865 19.5268 91.9013 21.0007 91.9013 22.7541C91.9013 24.5838 91.0628 26.0068 89.2585 26.0068Z" fill="#340E0E"/>
<path d="M103.94 27.252C102.136 27.252 101.196 25.6765 101.196 23.3132C101.196 20.9499 102.136 19.3489 103.94 19.3489C105.745 19.3489 106.71 20.9499 106.71 23.3132C106.71 25.6765 105.745 27.252 103.94 27.252ZM103.966 30.1998C108.159 30.1998 110.903 27.2266 110.903 23.3132C110.903 19.3998 108.159 16.4266 103.966 16.4266C99.7983 16.4266 97.003 19.3998 97.003 23.3132C97.003 27.2266 99.7983 30.1998 103.966 30.1998Z" fill="#340E0E"/>
<path d="M112.112 29.7932H116.255V16.7823H112.112V29.7932ZM112.112 14.9781H116.255V11.6237H112.112V14.9781Z" fill="#340E0E"/>
<path d="M118.052 34.0878H122.195V28.4464H122.245C123.059 29.5391 124.253 30.1998 125.93 30.1998C129.335 30.1998 131.597 27.5061 131.597 23.2878C131.597 19.3744 129.488 16.4012 126.032 16.4012C124.253 16.4012 122.982 17.1889 122.093 18.3579H122.017V16.7824H118.052V34.0878ZM124.863 26.9979C123.084 26.9979 122.068 25.5494 122.068 23.4402C122.068 21.3311 122.982 19.7301 124.787 19.7301C126.565 19.7301 127.404 21.204 127.404 23.4402C127.404 25.6511 126.438 26.9979 124.863 26.9979Z" fill="#340E0E"/>
<path d="M138.341 30.1998C141.746 30.1998 144.261 28.7259 144.261 25.8798C144.261 22.5508 141.568 21.9664 139.281 21.5852C137.629 21.2802 136.155 21.1532 136.155 20.2384C136.155 19.4252 136.943 19.044 137.959 19.044C139.103 19.044 139.891 19.3998 140.043 20.5687H143.855C143.652 18.0021 141.669 16.4012 137.985 16.4012C134.91 16.4012 132.369 17.8242 132.369 20.5687C132.369 23.6181 134.783 24.228 137.045 24.6092C138.773 24.9141 140.348 25.0412 140.348 26.2101C140.348 27.0487 139.56 27.5061 138.315 27.5061C136.943 27.5061 136.079 26.8708 135.926 25.5748H132.013C132.14 28.4464 134.529 30.1998 138.341 30.1998Z" fill="#340E0E"/>
<path d="M149.888 30.1743C151.692 30.1743 152.836 29.4628 153.776 28.1922H153.852V29.7932H157.817V16.7823H153.674V24.0501C153.674 25.6002 152.81 26.6675 151.387 26.6675C150.066 26.6675 149.431 25.8798 149.431 24.4567V16.7823H145.314V25.3207C145.314 28.2176 146.89 30.1743 149.888 30.1743Z" fill="#340E0E"/>
<path d="M159.618 29.7932H163.76V22.5C163.76 20.9499 164.522 19.8572 165.818 19.8572C167.063 19.8572 167.648 20.6704 167.648 22.068V29.7932H171.79V22.5C171.79 20.9499 172.527 19.8572 173.848 19.8572C175.093 19.8572 175.678 20.6704 175.678 22.068V29.7932H179.82V21.3311C179.82 18.4087 178.346 16.4012 175.398 16.4012C173.721 16.4012 172.324 17.1127 171.307 18.6882H171.256C170.596 17.2906 169.3 16.4012 167.597 16.4012C165.716 16.4012 164.471 17.2906 163.658 18.6374H163.582V16.7824H159.618V29.7932Z" fill="#340E0E"/>
<path fill-rule="evenodd" clip-rule="evenodd" d="M21.9008 42.4991C33.5962 42.4991 43.0773 33.018 43.0773 21.3226C43.0773 9.62718 33.5962 0.146149 21.9008 0.146149C10.2053 0.146149 0.724304 9.62718 0.724304 21.3226C0.724304 33.018 10.2053 42.4991 21.9008 42.4991ZM28.5071 10.011C28.8287 8.86879 27.7202 8.19334 26.7079 8.91458L12.5758 18.9822C11.4779 19.7643 11.6506 21.3226 12.8353 21.3226H16.5566V21.2938H23.8093L17.8997 23.3789L15.2945 32.6342C14.9729 33.7765 16.0813 34.4519 17.0937 33.7306L31.2257 23.6631C32.3236 22.881 32.1508 21.3226 30.9663 21.3226H25.323L28.5071 10.011Z" fill="#2FC980"/>
</svg>
